<svg width="775" height="670" viewBox="0 0 775 670" fill="none" xmlns="http://www.w3.org/2000/svg">
<path d="M640 655.069C639.997 655.583 639.84 656.075 639.562 656.44C639.425 656.618 639.262 656.76 639.082 656.856C638.903 656.952 638.71 657.001 638.516 657H632.552C632.357 657.001 632.164 656.952 631.983 656.855C631.803 656.758 631.639 656.616 631.501 656.436C631.363 656.257 631.254 656.044 631.18 655.809C631.105 655.574 631.068 655.323 631.068 655.069V420.333C631.068 415.159 629.733 410.959 628.093 410.949H181.142C179.496 410.959 178.168 415.159 178.16 420.333V653.631C178.159 654.11 178.021 654.573 177.773 654.927C177.525 655.282 177.184 655.505 176.818 655.552C175.616 655.706 174.414 655.841 173.22 655.967C173.19 655.967 173.16 655.977 173.131 655.977C172.478 656.054 171.825 656.112 171.172 656.179H171.165C170.823 655.378 170.497 654.557 170.163 653.737C170.056 653.458 170 653.151 170 652.839V408.159C170 406.73 170.045 405.292 170.119 403.873C170.225 401.924 170.41 399.984 170.675 398.061C171.929 389.092 174.763 383.019 177.982 383H631.246C631.716 383.004 632.18 383.132 632.611 383.376C633.244 383.741 633.816 384.262 634.295 384.912C634.946 385.792 635.502 386.782 635.949 387.856C637.537 391.496 638.672 396.921 639.073 403.235C639.073 403.293 639.08 403.351 639.08 403.409C639.184 404.973 639.236 406.566 639.228 408.159L639.332 428.848L639.399 441.187L639.599 479.901L639.674 493.648L640 655.069Z" fill="#E6E6E6"/>
<path d="M432.668 312.401H383.83C383.139 312.402 382.477 312.678 381.989 313.167C381.501 313.656 381.227 314.319 381.228 315.01V392.16H435.277V315.01C435.277 314.667 435.209 314.328 435.078 314.011C434.947 313.695 434.755 313.407 434.513 313.165C434.271 312.923 433.983 312.73 433.667 312.599C433.35 312.468 433.011 312.401 432.668 312.401ZM408.413 356.237C406.886 356.23 405.423 355.62 404.343 354.54C403.263 353.46 402.653 351.997 402.646 350.47V341.571C402.646 340.042 403.254 338.575 404.335 337.494C405.417 336.412 406.884 335.804 408.413 335.804C409.943 335.804 411.41 336.412 412.491 337.494C413.573 338.575 414.18 340.042 414.18 341.571V350.47C414.173 351.997 413.563 353.46 412.483 354.54C411.403 355.62 409.941 356.23 408.413 356.237Z" fill="#2F2E41"/>
<path d="M513.54 192H304.776C302.982 192.003 301.263 192.717 299.994 193.985C298.726 195.253 298.012 196.973 298.009 198.766V339.641C298.011 341.435 298.725 343.155 299.993 344.424C301.262 345.692 302.982 346.406 304.776 346.407H513.54C515.334 346.406 517.054 345.692 518.322 344.424C519.591 343.155 520.304 341.435 520.306 339.641V198.766C520.303 196.973 519.589 195.253 518.321 193.985C517.053 192.717 515.333 192.003 513.54 192Z" fill="#3F3D56"/>
<path d="M511.794 196.886H306.516C305.556 196.888 304.636 197.271 303.957 197.951C303.279 198.63 302.898 199.551 302.898 200.512V337.895C302.899 338.854 303.281 339.774 303.959 340.452C304.638 341.13 305.557 341.512 306.516 341.514H511.794C512.753 341.512 513.672 341.13 514.351 340.452C515.029 339.774 515.411 338.854 515.412 337.895V200.512C515.412 199.551 515.031 198.63 514.353 197.951C513.674 197.271 512.754 196.888 511.794 196.886Z" fill="white"/>
<path d="M381.06 389.692V397.136C381.061 397.521 381.215 397.891 381.487 398.164C381.76 398.436 382.13 398.59 382.516 398.591H433.989C434.374 398.589 434.744 398.435 435.016 398.162C435.288 397.89 435.442 397.521 435.444 397.136V389.692H381.06Z" fill="#3F3D56"/>
<path d="M471.813 401.181H349.684C349.349 401.181 349.019 401.106 348.717 400.962C348.416 400.819 348.15 400.609 347.939 400.35C347.728 400.09 347.578 399.787 347.5 399.462C347.421 399.137 347.416 398.798 347.485 398.471L349.38 389.471C349.488 388.968 349.765 388.516 350.165 388.192C350.565 387.867 351.063 387.689 351.578 387.687H469.918C470.433 387.689 470.932 387.867 471.331 388.192C471.731 388.516 472.008 388.968 472.116 389.471L474.011 398.471C474.08 398.798 474.075 399.137 473.996 399.462C473.918 399.787 473.768 400.09 473.557 400.35C473.347 400.609 473.081 400.819 472.779 400.962C472.477 401.106 472.147 401.181 471.813 401.181Z" fill="#2F2E41"/>
<path d="M355.719 389.308H352.934C352.664 389.308 352.446 389.526 352.446 389.796V391.077C352.446 391.346 352.664 391.565 352.934 391.565H355.719C355.989 391.565 356.207 391.346 356.207 391.077V389.796C356.207 389.526 355.989 389.308 355.719 389.308Z" fill="#3F3D56"/>
<path d="M363.242 389.308H360.457C360.187 389.308 359.969 389.526 359.969 389.796V391.077C359.969 391.346 360.187 391.565 360.457 391.565H363.242C363.511 391.565 363.73 391.346 363.73 391.077V389.796C363.73 389.526 363.511 389.308 363.242 389.308Z" fill="#3F3D56"/>
<path d="M370.765 389.308H367.98C367.71 389.308 367.491 389.526 367.491 389.796V391.077C367.491 391.346 367.71 391.565 367.98 391.565H370.765C371.034 391.565 371.253 391.346 371.253 391.077V389.796C371.253 389.526 371.034 389.308 370.765 389.308Z" fill="#3F3D56"/>
<path d="M378.288 389.308H375.503C375.233 389.308 375.014 389.526 375.014 389.796V391.077C375.014 391.346 375.233 391.565 375.503 391.565H378.288C378.557 391.565 378.776 391.346 378.776 391.077V389.796C378.776 389.526 378.557 389.308 378.288 389.308Z" fill="#3F3D56"/>
<path d="M385.811 389.308H383.026C382.756 389.308 382.537 389.526 382.537 389.796V391.077C382.537 391.346 382.756 391.565 383.026 391.565H385.811C386.08 391.565 386.299 391.346 386.299 391.077V389.796C386.299 389.526 386.08 389.308 385.811 389.308Z" fill="#3F3D56"/>
<path d="M393.333 389.308H390.548C390.279 389.308 390.06 389.526 390.06 389.796V391.077C390.06 391.346 390.279 391.565 390.548 391.565H393.333C393.603 391.565 393.822 391.346 393.822 391.077V389.796C393.822 389.526 393.603 389.308 393.333 389.308Z" fill="#3F3D56"/>
<path d="M400.856 389.308H398.071C397.802 389.308 397.583 389.526 397.583 389.796V391.077C397.583 391.346 397.802 391.565 398.071 391.565H400.856C401.126 391.565 401.344 391.346 401.344 391.077V389.796C401.344 389.526 401.126 389.308 400.856 389.308Z" fill="#3F3D56"/>
<path d="M408.379 389.308H405.594C405.325 389.308 405.106 389.526 405.106 389.796V391.077C405.106 391.346 405.325 391.565 405.594 391.565H408.379C408.649 391.565 408.867 391.346 408.867 391.077V389.796C408.867 389.526 408.649 389.308 408.379 389.308Z" fill="#3F3D56"/>
<path d="M415.902 389.308H413.117C412.847 389.308 412.629 389.526 412.629 389.796V391.077C412.629 391.346 412.847 391.565 413.117 391.565H415.902C416.172 391.565 416.39 391.346 416.39 391.077V389.796C416.39 389.526 416.172 389.308 415.902 389.308Z" fill="#3F3D56"/>
<path d="M423.425 389.308H420.64C420.37 389.308 420.152 389.526 420.152 389.796V391.077C420.152 391.346 420.37 391.565 420.64 391.565H423.425C423.695 391.565 423.913 391.346 423.913 391.077V389.796C423.913 389.526 423.695 389.308 423.425 389.308Z" fill="#3F3D56"/>
<path d="M430.948 389.308H428.163C427.893 389.308 427.675 389.526 427.675 389.796V391.077C427.675 391.346 427.893 391.565 428.163 391.565H430.948C431.218 391.565 431.436 391.346 431.436 391.077V389.796C431.436 389.526 431.218 389.308 430.948 389.308Z" fill="#3F3D56"/>
<path d="M438.471 389.308H435.686C435.416 389.308 435.198 389.526 435.198 389.796V391.077C435.198 391.346 435.416 391.565 435.686 391.565H438.471C438.741 391.565 438.959 391.346 438.959 391.077V389.796C438.959 389.526 438.741 389.308 438.471 389.308Z" fill="#3F3D56"/>
<path d="M445.994 389.308H443.209C442.939 389.308 442.72 389.526 442.72 389.796V391.077C442.72 391.346 442.939 391.565 443.209 391.565H445.994C446.263 391.565 446.482 391.346 446.482 391.077V389.796C446.482 389.526 446.263 389.308 445.994 389.308Z" fill="#3F3D56"/>
<path d="M453.517 389.308H450.732C450.462 389.308 450.243 389.526 450.243 389.796V391.077C450.243 391.346 450.462 391.565 450.732 391.565H453.517C453.786 391.565 454.005 391.346 454.005 391.077V389.796C454.005 389.526 453.786 389.308 453.517 389.308Z" fill="#3F3D56"/>
<path d="M461.04 389.308H458.255C457.985 389.308 457.766 389.526 457.766 389.796V391.077C457.766 391.346 457.985 391.565 458.255 391.565H461.04C461.309 391.565 461.528 391.346 461.528 391.077V389.796C461.528 389.526 461.309 389.308 461.04 389.308Z" fill="#3F3D56"/>
<path d="M468.562 389.308H465.777C465.508 389.308 465.289 389.526 465.289 389.796V391.077C465.289 391.346 465.508 391.565 465.777 391.565H468.562C468.832 391.565 469.051 391.346 469.051 391.077V389.796C469.051 389.526 468.832 389.308 468.562 389.308Z" fill="#3F3D56"/>
<path d="M355.63 393.069H352.845C352.575 393.069 352.357 393.288 352.357 393.558V394.838C352.357 395.108 352.575 395.326 352.845 395.326H355.63C355.9 395.326 356.118 395.108 356.118 394.838V393.558C356.118 393.288 355.9 393.069 355.63 393.069Z" fill="#3F3D56"/>
<path d="M363.153 393.069H360.368C360.098 393.069 359.88 393.288 359.88 393.558V394.838C359.88 395.108 360.098 395.326 360.368 395.326H363.153C363.423 395.326 363.641 395.108 363.641 394.838V393.558C363.641 393.288 363.423 393.069 363.153 393.069Z" fill="#3F3D56"/>
<path d="M370.676 393.069H367.891C367.621 393.069 367.403 393.288 367.403 393.558V394.838C367.403 395.108 367.621 395.326 367.891 395.326H370.676C370.945 395.326 371.164 395.108 371.164 394.838V393.558C371.164 393.288 370.945 393.069 370.676 393.069Z" fill="#3F3D56"/>
<path d="M378.199 393.069H375.414C375.144 393.069 374.926 393.288 374.926 393.558V394.838C374.926 395.108 375.144 395.326 375.414 395.326H378.199C378.468 395.326 378.687 395.108 378.687 394.838V393.558C378.687 393.288 378.468 393.069 378.199 393.069Z" fill="#3F3D56"/>
<path d="M385.722 393.069H382.937C382.667 393.069 382.448 393.288 382.448 393.558V394.838C382.448 395.108 382.667 395.326 382.937 395.326H385.722C385.991 395.326 386.21 395.108 386.21 394.838V393.558C386.21 393.288 385.991 393.069 385.722 393.069Z" fill="#3F3D56"/>
<path d="M393.245 393.069H390.46C390.19 393.069 389.971 393.288 389.971 393.558V394.838C389.971 395.108 390.19 395.326 390.46 395.326H393.245C393.514 395.326 393.733 395.108 393.733 394.838V393.558C393.733 393.288 393.514 393.069 393.245 393.069Z" fill="#3F3D56"/>
<path d="M400.767 393.069H397.982C397.713 393.069 397.494 393.288 397.494 393.558V394.838C397.494 395.108 397.713 395.326 397.982 395.326H400.767C401.037 395.326 401.256 395.108 401.256 394.838V393.558C401.256 393.288 401.037 393.069 400.767 393.069Z" fill="#3F3D56"/>
<path d="M408.29 393.069H405.505C405.236 393.069 405.017 393.288 405.017 393.558V394.838C405.017 395.108 405.236 395.326 405.505 395.326H408.29C408.56 395.326 408.779 395.108 408.779 394.838V393.558C408.779 393.288 408.56 393.069 408.29 393.069Z" fill="#3F3D56"/>
<path d="M415.813 393.069H413.028C412.759 393.069 412.54 393.288 412.54 393.558V394.838C412.54 395.108 412.759 395.326 413.028 395.326H415.813C416.083 395.326 416.301 395.108 416.301 394.838V393.558C416.301 393.288 416.083 393.069 415.813 393.069Z" fill="#3F3D56"/>
<path d="M423.336 393.069H420.551C420.281 393.069 420.063 393.288 420.063 393.558V394.838C420.063 395.108 420.281 395.326 420.551 395.326H423.336C423.606 395.326 423.824 395.108 423.824 394.838V393.558C423.824 393.288 423.606 393.069 423.336 393.069Z" fill="#3F3D56"/>
<path d="M430.859 393.069H428.074C427.804 393.069 427.586 393.288 427.586 393.558V394.838C427.586 395.108 427.804 395.326 428.074 395.326H430.859C431.129 395.326 431.347 395.108 431.347 394.838V393.558C431.347 393.288 431.129 393.069 430.859 393.069Z" fill="#3F3D56"/>
<path d="M438.382 393.069H435.597C435.327 393.069 435.109 393.288 435.109 393.558V394.838C435.109 395.108 435.327 395.326 435.597 395.326H438.382C438.652 395.326 438.87 395.108 438.87 394.838V393.558C438.87 393.288 438.652 393.069 438.382 393.069Z" fill="#3F3D56"/>
<path d="M445.905 393.069H443.12C442.85 393.069 442.632 393.288 442.632 393.558V394.838C442.632 395.108 442.85 395.326 443.12 395.326H445.905C446.174 395.326 446.393 395.108 446.393 394.838V393.558C446.393 393.288 446.174 393.069 445.905 393.069Z" fill="#3F3D56"/>
<path d="M453.428 393.069H450.643C450.373 393.069 450.155 393.288 450.155 393.558V394.838C450.155 395.108 450.373 395.326 450.643 395.326H453.428C453.697 395.326 453.916 395.108 453.916 394.838V393.558C453.916 393.288 453.697 393.069 453.428 393.069Z" fill="#3F3D56"/>
<path d="M460.951 393.069H458.166C457.896 393.069 457.677 393.288 457.677 393.558V394.838C457.677 395.108 457.896 395.326 458.166 395.326H460.951C461.22 395.326 461.439 395.108 461.439 394.838V393.558C461.439 393.288 461.22 393.069 460.951 393.069Z" fill="#3F3D56"/>
<path d="M468.474 393.069H465.689C465.419 393.069 465.2 393.288 465.2 393.558V394.838C465.2 395.108 465.419 395.326 465.689 395.326H468.474C468.743 395.326 468.962 395.108 468.962 394.838V393.558C468.962 393.288 468.743 393.069 468.474 393.069Z" fill="#3F3D56"/>
<path d="M418.07 397.583H388.955C388.685 397.583 388.467 397.802 388.467 398.071V399.352C388.467 399.621 388.685 399.84 388.955 399.84H418.07C418.34 399.84 418.558 399.621 418.558 399.352V398.071C418.558 397.802 418.34 397.583 418.07 397.583Z" fill="#3F3D56"/>
<path d="M501.478 215.815H309.401C309.201 215.811 309.011 215.729 308.871 215.586C308.731 215.443 308.653 215.251 308.653 215.052C308.653 214.852 308.731 214.66 308.871 214.517C309.011 214.374 309.201 214.292 309.401 214.288H501.478C501.678 214.292 501.868 214.374 502.008 214.517C502.148 214.66 502.226 214.852 502.226 215.052C502.226 215.251 502.148 215.443 502.008 215.586C501.868 215.729 501.678 215.811 501.478 215.815Z" fill="#CACACA"/>
<path d="M322.476 210.388C324.948 210.388 326.952 208.339 326.952 205.812C326.952 203.284 324.948 201.235 322.476 201.235C320.004 201.235 317.999 203.284 317.999 205.812C317.999 208.339 320.004 210.388 322.476 210.388Z" fill="#3F3D56"/>
<path d="M337.94 210.388C340.412 210.388 342.416 208.339 342.416 205.812C342.416 203.284 340.412 201.235 337.94 201.235C335.468 201.235 333.464 203.284 333.464 205.812C333.464 208.339 335.468 210.388 337.94 210.388Z" fill="#3F3D56"/>
<path d="M353.404 210.388C355.876 210.388 357.88 208.339 357.88 205.812C357.88 203.284 355.876 201.235 353.404 201.235C350.932 201.235 348.928 203.284 348.928 205.812C348.928 208.339 350.932 210.388 353.404 210.388Z" fill="#3F3D56"/>
<path d="M492.168 202.37H481.183C480.965 202.374 480.758 202.463 480.605 202.619C480.453 202.774 480.367 202.984 480.367 203.201C480.367 203.419 480.453 203.628 480.605 203.784C480.758 203.939 480.965 204.029 481.183 204.033H492.168C492.385 204.029 492.593 203.939 492.745 203.784C492.898 203.628 492.983 203.419 492.983 203.201C492.983 202.984 492.898 202.774 492.745 202.619C492.593 202.463 492.385 202.374 492.168 202.37Z" fill="#3F3D56"/>
<path d="M492.168 205.492H481.183C480.965 205.496 480.758 205.586 480.605 205.741C480.453 205.897 480.367 206.106 480.367 206.323C480.367 206.541 480.453 206.75 480.605 206.906C480.758 207.061 480.965 207.151 481.183 207.155H492.168C492.385 207.151 492.593 207.061 492.745 206.906C492.898 206.75 492.983 206.541 492.983 206.323C492.983 206.106 492.898 205.897 492.745 205.741C492.593 205.586 492.385 205.496 492.168 205.492Z" fill="#3F3D56"/>
<path d="M492.168 208.61H481.183C480.965 208.614 480.758 208.704 480.605 208.859C480.453 209.015 480.367 209.224 480.367 209.441C480.367 209.659 480.453 209.868 480.605 210.024C480.758 210.179 480.965 210.269 481.183 210.273H492.168C492.385 210.269 492.593 210.179 492.745 210.024C492.898 209.868 492.983 209.659 492.983 209.441C492.983 209.224 492.898 209.015 492.745 208.859C492.593 208.704 492.385 208.614 492.168 208.61Z" fill="#3F3D56"/>
<path d="M420.783 260.44H396.782C394.979 260.44 393.518 261.901 393.518 263.704V263.704C393.518 265.507 394.979 266.968 396.782 266.968H420.783C422.586 266.968 424.047 265.507 424.047 263.704V263.704C424.047 261.901 422.586 260.44 420.783 260.44Z" fill="#FC4A2B"/>
<path d="M436.288 273.496H381.277C379.474 273.496 378.013 274.958 378.013 276.761V276.761C378.013 278.563 379.474 280.025 381.277 280.025H436.288C438.091 280.025 439.552 278.563 439.552 276.761V276.761C439.552 274.958 438.091 273.496 436.288 273.496Z" fill="#E6E6E6"/>
<path d="M436.288 286.553H381.277C379.474 286.553 378.013 288.014 378.013 289.817C378.013 291.62 379.474 293.081 381.277 293.081H436.288C438.091 293.081 439.552 291.62 439.552 289.817C439.552 288.014 438.091 286.553 436.288 286.553Z" fill="#E6E6E6"/>
<path d="M376.592 410.782H316.592C314.47 410.782 312.435 411.625 310.935 413.125C309.435 414.626 308.592 416.66 308.592 418.782C308.592 420.904 309.435 422.939 310.935 424.439C312.435 425.939 314.47 426.782 316.592 426.782H338.592V488.782H354.592V426.782H376.592C378.713 426.782 380.748 425.939 382.249 424.439C383.749 422.939 384.592 420.904 384.592 418.782C384.592 416.66 383.749 414.626 382.249 413.125C380.748 411.625 378.713 410.782 376.592 410.782Z" fill="#3F3D56"/>
<path d="M416.193 523.119H255.71C240.152 523.062 225.134 517.41 213.399 507.195C201.663 496.981 193.995 482.885 191.793 467.483L186.113 446.588C174.355 403.287 156.445 361.898 132.931 323.685C122.184 306.231 116.652 289.336 129.217 273.069C129.324 272.931 129.429 272.794 129.532 272.66C139.609 259.543 189.767 256.704 206.118 256.152C206.764 256.13 207.412 256.119 208.063 256.119H307.882C308.533 256.119 309.181 256.13 309.827 256.152C318.641 256.409 327.222 259.047 334.658 263.787C342.094 268.526 348.108 275.191 352.063 283.073C356.283 291.12 358.245 300.159 357.742 309.232C357.239 318.304 354.29 327.071 349.207 334.602C314.144 387.273 303.408 420.3 314.399 441.687C325.03 462.375 357.619 472.952 416.957 474.973C432.904 475.516 440.222 487.933 440.273 499.239C440.323 510.254 433.287 522.415 417.721 523.087C417.215 523.108 416.706 523.119 416.193 523.119Z" fill="#3F3D56"/>
<path d="M282.972 665.619H342.972C345.094 665.619 347.129 664.776 348.629 663.276C350.13 661.776 350.972 659.741 350.972 657.619C350.972 655.497 350.13 653.462 348.629 651.962C347.129 650.462 345.094 649.619 342.972 649.619H320.972V514.619H304.972V649.619H282.972C280.851 649.619 278.816 650.462 277.316 651.962C275.815 653.462 274.972 655.497 274.972 657.619C274.972 659.741 275.815 661.776 277.316 663.276C278.816 664.776 280.851 665.619 282.972 665.619Z" fill="#3F3D56"/>
<path d="M337.278 611.193L347.614 616.808L374.976 578.976L359.72 570.69L337.278 611.193Z" fill="#FFB6B6"/>
<path d="M342.254 597.713L361.018 603.589L358.031 611.45L370.898 630.124C371.533 631.047 371.858 632.148 371.823 633.268C371.788 634.387 371.397 635.466 370.705 636.347C370.014 637.229 369.059 637.866 367.98 638.166C366.901 638.466 365.754 638.413 364.707 638.015L342.863 629.716L342.052 620.51L337.628 627.727L329.392 624.598L342.254 597.713Z" fill="#2F2E41"/>
<path d="M395.825 441.982C394.175 442.384 392.457 442.419 390.792 442.085C389.128 441.751 387.556 441.056 386.189 440.049C384.822 439.042 383.692 437.748 382.88 436.257C382.067 434.766 381.591 433.115 381.485 431.421L293.324 399.704L309.503 385.625L393.181 418.941C396.04 418.953 398.795 420.012 400.925 421.919C403.055 423.826 404.411 426.448 404.737 429.288C405.063 432.128 404.335 434.989 402.693 437.328C401.05 439.668 398.607 441.324 395.825 441.982Z" fill="#FFB6B6"/>
<path d="M268.695 321.132C268.695 321.132 253.847 321.459 252.527 338.41C251.207 355.362 283.606 397.292 288.625 404.207C293.645 411.122 349.402 419.632 349.402 419.632L368.356 405.872C348.44 392.967 330.264 383.072 318.066 383.517L268.695 321.132Z" fill="#FC4A2B"/>
<path d="M250.484 395.929L254.103 411.475C254.103 411.475 254.138 425.81 256.677 428.453C259.198 431.084 314.632 425.802 314.632 425.802C314.632 425.802 308.755 402.702 308.833 385.223L250.484 395.929Z" fill="#FFB6B6"/>
<path d="M367.592 594.782L347.592 583.782C347.211 557.757 362.865 522.539 381.431 485.65C339.908 492.791 300.735 495.079 266.852 486.44C261.29 484.971 256.528 481.372 253.598 476.421C250.667 471.471 249.802 465.566 251.189 459.982C251.321 459.434 251.474 458.892 251.647 458.355C255.702 445.983 246.609 438.227 254.972 424.619C276.969 417.107 297.865 414.985 316.972 421.619L328.945 448.09L388.287 440.411C391.154 440.068 394.061 440.297 396.839 441.082C399.618 441.868 402.214 443.196 404.476 444.989C406.739 446.783 408.625 449.007 410.024 451.532C411.424 454.058 412.31 456.835 412.631 459.705C412.711 460.349 412.763 460.996 412.787 461.645C400.788 517.898 387.334 568.514 367.592 594.782Z" fill="#2F2E41"/>
<path d="M250.528 284.598C262.939 282.059 270.97 270.077 268.465 257.837C265.961 245.597 253.869 237.733 241.458 240.273C229.047 242.813 221.016 254.794 223.521 267.034C226.025 279.274 238.117 287.138 250.528 284.598Z" fill="#FFB6B6"/>
<path d="M243.495 313.309C248.849 312.213 250.185 296.645 246.48 278.537C242.775 260.428 235.431 246.636 230.076 247.732C224.722 248.827 223.386 264.396 227.091 282.504C230.796 300.613 238.141 314.405 243.495 313.309Z" fill="#FFB6B6"/>
<path d="M242.429 297.506L265.29 296.156C266.254 296.099 267.212 296.345 268.03 296.858C268.848 297.371 269.486 298.127 269.854 299.02L276.314 314.681L303.165 336.873C303.165 336.873 313.795 350.401 313.82 367.872C313.845 385.343 313.82 421 313.82 421C313.82 421 306.076 400.192 296.5 406C294.871 406.988 290.298 412.761 288.592 413.782C287.74 414.292 285.774 413.796 284.914 414.307C271.718 422.14 257.956 429.793 256.67 428.451C254.146 425.817 251.083 412.354 251.083 412.354L230.157 335.467C229.022 331.421 228.797 327.175 229.497 323.032C230.197 318.889 231.805 314.953 234.206 311.505C235.668 309.446 237.2 307.915 238.623 307.662C241.82 306.981 240.12 299.818 242.429 297.506Z" fill="#FC4A2B"/>
<path d="M436.898 643.762L446.548 637.053L424.687 595.809L410.445 605.711L436.898 643.762Z" fill="#FFB6B6"/>
<path d="M438.357 616.088L423.233 629.607C399.186 602.811 381.006 565.231 365.6 522.554C325.234 510.732 294.793 491.665 268.218 469.027C259.203 461.399 252.444 451.599 260.133 442.306C260.493 441.872 260.868 441.452 261.259 441.046C270.338 431.716 293.36 433.494 306.844 424.946L336.965 457.143L335.071 465.774L391.648 484.939C394.37 485.893 396.876 487.377 399.023 489.304C401.169 491.232 402.912 493.565 404.152 496.17C405.391 498.775 406.103 501.599 406.246 504.48C406.389 507.361 405.96 510.242 404.983 512.956C404.771 513.57 404.534 514.174 404.27 514.767L438.357 616.088Z" fill="#2F2E41"/>
<path d="M431.272 641.042L446.719 628.877L451.519 635.782L474.197 635.713C475.317 635.71 476.409 636.064 477.313 636.725C478.218 637.386 478.887 638.319 479.224 639.387C479.56 640.455 479.547 641.603 479.185 642.663C478.823 643.723 478.132 644.64 477.212 645.279L458.025 658.617L449.97 654.086L453.426 661.813L446.192 666.842L431.272 641.042Z" fill="#2F2E41"/>
<path d="M276.187 491.275C274.624 490.611 273.226 489.613 272.09 488.351C270.955 487.089 270.11 485.593 269.615 483.969C269.12 482.344 268.987 480.631 269.226 478.95C269.465 477.269 270.069 475.661 270.997 474.239L219.243 396.137L240.629 394.511L287.831 471.218C290.117 472.935 291.694 475.43 292.263 478.232C292.832 481.033 292.353 483.946 290.918 486.418C289.483 488.891 287.19 490.751 284.475 491.646C281.76 492.541 278.811 492.409 276.187 491.275Z" fill="#FFB6B6"/>
<path d="M246.43 318.413C246.43 318.413 234.327 309.805 223.142 322.611C211.956 335.417 212.89 388.397 212.785 396.941C212.752 399.617 216.615 405.39 221.938 412.058C224.328 415.052 227.011 418.226 229.769 421.381C231.364 423.207 229.989 427.007 231.592 428.782C233.185 430.547 237.756 430.287 239.271 431.925C246.466 439.7 252.31 445.619 252.31 445.619L275.73 445.907C275.995 428.497 264.072 412.956 248.755 397.936L246.43 318.413Z" fill="#FC4A2B"/>
<path d="M285.592 414.782H225.592C223.47 414.782 221.435 415.625 219.935 417.125C218.435 418.626 217.592 420.66 217.592 422.782C217.592 424.904 218.435 426.939 219.935 428.439C221.435 429.939 223.47 430.782 225.592 430.782H247.592V492.782H263.592V430.782H285.592C287.714 430.782 289.748 429.939 291.249 428.439C292.749 426.939 293.592 424.904 293.592 422.782C293.592 420.66 292.749 418.626 291.249 417.125C289.748 415.625 287.714 414.782 285.592 414.782Z" fill="#3F3D56"/>
<path d="M272.5 258.674C272.626 260.97 272.812 271.377 264.971 276.63C263.432 277.664 259.578 279.663 260.327 278.436C261.992 274.716 261.799 279.436 264.971 272C268.971 267.5 269.445 260.938 263.919 251.866C260.403 246.089 245.657 245.335 238.376 247.522C235.306 248.444 231.826 250.748 230.144 253.852C227.365 258.97 232.234 269.47 232.397 276.686C232.438 278.619 232.146 280.316 231.281 281.612C230.743 282.419 230.013 281.942 229.242 280.995C227.603 278.985 228.594 273.899 228 275.5C226.285 280.139 228.153 284.528 229.72 285.95C230.041 286.241 230.361 286.516 230.675 286.775L230.676 286.778C230.856 286.925 231.041 287.071 231.217 287.208L231.219 287.211C236.065 290.98 240.278 291.364 244.577 293.214C246.265 293.936 247.962 294.88 249.719 296.34C250.922 297.34 251.93 298.423 252.769 299.545C257.003 305.159 257.116 311.711 257.15 313.492C257.215 317.202 257.325 323.576 252.514 329.069C246.473 335.969 238.203 335.174 236.355 340.213C236.331 340.273 236.311 340.331 236.291 340.389C236.227 340.589 236.175 340.784 236.139 340.973C232.826 341.244 229.502 341.344 226.237 341.267C225.799 341.259 225.358 341.247 224.914 341.226C224.427 341.213 223.939 341.19 223.445 341.16C223.326 340.904 223.207 340.647 223.091 340.386C221.074 335.917 219.49 330.759 218.932 325.219C218.579 321.679 218.228 318.17 218.39 314.593C218.497 312.261 218.819 309.899 219.511 307.476C220.062 305.53 220.843 303.545 221.935 301.506C224.333 297.028 227.03 294.501 226.272 291.053C225.191 286.131 218.753 287.027 213.897 280.835C210.579 276.601 206.372 270.274 206.032 265.04C205.71 260.095 205.434 255.804 208.014 250.491C208.636 249.216 214.178 239.878 223.011 235.264C227.082 233.141 232.612 236.132 238.128 235.093C244.468 233.898 248.099 233.212 252.213 234C259.165 235.327 262.775 239.949 266.127 244.244C268.75 247.604 272.144 251.949 272.5 258.674Z" fill="#2F2E41"/>
</svg>
