<svg width="119" height="48" viewBox="0 0 119 48" fill="none" xmlns="http://www.w3.org/2000/svg">
<path d="M3.96484 32.3945C3.96484 36.6133 5.95703 38.4883 10.293 38.4883C11.875 38.4883 13.1055 38.1758 13.9453 37.5898C14.7266 37.0625 15.1367 36.3203 15.1367 35.4219C15.1367 34.3281 14.4531 33.6445 13.4766 33.6445C12.9297 33.6445 12.5977 33.7422 12.0508 33.7422C10.7227 33.7422 10.2539 33.1172 10.2539 31.4375V22.1602H11.8164C13.4766 22.1602 14.4141 21.2812 14.4141 19.7773C14.4141 18.2734 13.4766 17.3945 11.8164 17.3945H10.1758V15.1289C10.1758 12.9805 9.10156 11.7891 7.14844 11.7891C5.21484 11.7891 4.12109 12.9805 4.12109 15.1289V17.3945H3.20312C1.54297 17.3945 0.605469 18.2734 0.605469 19.7773C0.605469 21.2812 1.54297 22.1602 3.20312 22.1602H3.96484V32.3945ZM30.5859 34.25H30.8984V36.8867C30.8984 39.6992 29.5898 40.9688 26.8164 40.9688C24.707 40.9688 23.5156 40.2461 22.5586 39.7188C21.875 39.3086 21.3086 38.9766 20.4492 38.9766C18.9062 38.9766 17.9297 39.8945 17.9297 41.2812C17.9297 42.6289 18.7891 43.7617 20.2148 44.543C21.7383 45.3828 24.0039 45.832 26.8555 45.832C33.2031 45.832 37.168 42.9219 37.168 37.3945V20.3242C37.168 18.0977 36.0156 16.8867 34.0234 16.8867C32.2461 16.8867 31.0938 17.8828 30.957 19.7969V20.3242H30.6445C29.9219 18.3125 27.7539 16.8281 24.7656 16.8281C20.1172 16.8281 17.0898 20.3242 17.0898 26.3789V27.9805C17.0898 34.0352 20.1172 37.5117 24.7852 37.5117C27.6562 37.5117 29.8242 36.1836 30.5859 34.25ZM23.5742 28.0781V26.6523C23.5742 23.5859 24.9805 21.6914 27.2461 21.6914C29.5898 21.6914 30.8984 23.6641 30.8984 26.4375V28.3125C30.8984 31.0469 29.6094 33.0391 27.2852 33.0391C25.0195 33.0391 23.5742 31.125 23.5742 28.0781ZM40.918 33.8594C40.918 35.2266 41.8164 36.418 43.457 37.2578C45.0195 38.0586 47.1289 38.5078 49.4922 38.5078C55.293 38.5078 58.7305 35.8711 58.7305 31.5938C58.7305 28.3906 56.9531 26.457 53.1836 25.6758L49.5117 24.9336C47.8906 24.582 47.1875 24.0156 47.1875 23.0195C47.1875 21.8672 48.1641 21.0469 49.8047 21.0469C50.8789 21.0469 51.8555 21.3398 53.418 22.2578C54.4727 22.8438 55.1367 23.0391 55.7617 23.0391C57.1094 23.0391 58.0469 22.2578 58.0469 20.9688C58.0469 19.6602 57.1094 18.5078 55.4297 17.7266C53.9453 17.0039 52.0898 16.6328 50.1367 16.6328C44.707 16.6328 41.1914 19.3281 41.1914 23.3906C41.1914 26.5742 43.0273 28.5078 47.0508 29.3477L49.9609 29.9727C51.875 30.4023 52.7344 31.125 52.7344 32.1602C52.7344 33.332 51.6406 34.0352 49.8438 34.0352C48.3984 34.0352 47.1875 33.6055 45.5273 32.5703C44.4922 31.9453 43.9258 31.6914 43.2031 31.6914C41.8359 31.6914 40.918 32.5703 40.918 33.8594ZM73.7891 35.4414H74.082V35.8516C74.3359 37.3555 75.4297 38.1953 77.0312 38.1953C78.9844 38.1953 80.0781 37.0234 80.0781 34.875V24.2109C80.0781 19.5039 76.8164 16.8281 71.0742 16.8281C68.6523 16.8281 66.7969 17.2383 65.4102 17.9023C63.4766 18.8203 62.6172 20.0898 62.6172 21.3594C62.6172 22.5703 63.4375 23.4688 64.7852 23.4688C65.7617 23.4688 66.4062 23.2344 67.0508 22.8242C68.1641 22.0234 69.2188 21.4375 70.6641 21.4375C72.6562 21.4375 73.8086 22.375 73.8086 24.1328V25.6367H69.1992C64.375 25.6562 61.4648 28.0391 61.4648 31.9258C61.4648 35.6953 64.2188 38.2344 68.3008 38.2344C70.7812 38.2344 72.8125 37.1992 73.7891 35.4414ZM67.6367 31.4766C67.6367 30.0117 68.7695 29.1133 70.6055 29.1133H73.8086V31.1445C73.8086 32.7266 72.3633 33.957 70.5273 33.957C68.8281 33.957 67.6367 32.9414 67.6367 31.4766ZM85.8398 32.3945C85.8398 36.6133 87.832 38.4883 92.168 38.4883C93.75 38.4883 94.9805 38.1758 95.8203 37.5898C96.6016 37.0625 97.0117 36.3203 97.0117 35.4219C97.0117 34.3281 96.3281 33.6445 95.3516 33.6445C94.8047 33.6445 94.4727 33.7422 93.9258 33.7422C92.5977 33.7422 92.1289 33.1172 92.1289 31.4375V22.1602H93.6914C95.3516 22.1602 96.2891 21.2812 96.2891 19.7773C96.2891 18.2734 95.3516 17.3945 93.6914 17.3945H92.0508V15.1289C92.0508 12.9805 90.9766 11.7891 89.0234 11.7891C87.0898 11.7891 85.9961 12.9805 85.9961 15.1289V17.3945H85.0781C83.418 17.3945 82.4805 18.2734 82.4805 19.7773C82.4805 21.2812 83.418 22.1602 85.0781 22.1602H85.8398V32.3945ZM101.777 32.3945C101.777 36.6133 103.77 38.4883 108.105 38.4883C109.688 38.4883 110.918 38.1758 111.758 37.5898C112.539 37.0625 112.949 36.3203 112.949 35.4219C112.949 34.3281 112.266 33.6445 111.289 33.6445C110.742 33.6445 110.41 33.7422 109.863 33.7422C108.535 33.7422 108.066 33.1172 108.066 31.4375V22.1602H109.629C111.289 22.1602 112.227 21.2812 112.227 19.7773C112.227 18.2734 111.289 17.3945 109.629 17.3945H107.988V15.1289C107.988 12.9805 106.914 11.7891 104.961 11.7891C103.027 11.7891 101.934 12.9805 101.934 15.1289V17.3945H101.016C99.3555 17.3945 98.418 18.2734 98.418 19.7773C98.418 21.2812 99.3555 22.1602 101.016 22.1602H101.777V32.3945Z" fill="black"/>
<path d="M74.5938 35.4414H74.8867V35.8516C75.1406 37.3555 76.2344 38.1953 77.8359 38.1953C79.7891 38.1953 80.8828 37.0234 80.8828 34.875V24.2109C80.8828 19.5039 77.6211 16.8281 71.8789 16.8281C69.457 16.8281 67.6016 17.2383 66.2148 17.9023C64.2812 18.8203 63.4219 20.0898 63.4219 21.3594C63.4219 22.5703 64.2422 23.4688 65.5898 23.4688C66.5664 23.4688 67.2109 23.2344 67.8555 22.8242C68.9688 22.0234 70.0234 21.4375 71.4688 21.4375C73.4609 21.4375 74.6133 22.375 74.6133 24.1328V25.6367H70.0039C65.1797 25.6562 62.2695 28.0391 62.2695 31.9258C62.2695 35.6953 65.0234 38.2344 69.1055 38.2344C71.5859 38.2344 73.6172 37.1992 74.5938 35.4414ZM68.4414 31.4766C68.4414 30.0117 69.5742 29.1133 71.4102 29.1133H74.6133V31.1445C74.6133 32.7266 73.168 33.957 71.332 33.957C69.6328 33.957 68.4414 32.9414 68.4414 31.4766Z" fill="#FC4A2B"/>
<circle cx="116.5" cy="35.5" r="2.5" fill="#FC4A2B"/>
</svg>
